<mxfile host="app.diagrams.net" modified="2021-03-01T13:56:16.543Z" agent="5.0 (Windows NT 10.0; Win64; x64) AppleWebKit/537.36 (KHTML, like Gecko) Chrome/88.0.4324.190 Safari/537.36" etag="_BWF_Yk63G7EGMoYKAbj" version="14.4.2" type="github">
  <diagram id="ATp6TMmyWoH9TD7Tf0jV" name="Page-1">
    <mxGraphModel dx="2512" dy="1902" grid="1" gridSize="10" guides="1" tooltips="1" connect="1" arrows="1" fold="1" page="1" pageScale="1" pageWidth="850" pageHeight="1100" math="0" shadow="0">
      <root>
        <mxCell id="0" />
        <mxCell id="1" parent="0" />
        <mxCell id="hR_grr5WYZVCEhmhDHav-1" value="RESTAURANTS" style="rounded=0;whiteSpace=wrap;html=1;" parent="1" vertex="1">
          <mxGeometry x="40" y="160" width="120" height="60" as="geometry" />
        </mxCell>
        <mxCell id="hR_grr5WYZVCEhmhDHav-5" value="REVIEWS" style="rounded=0;whiteSpace=wrap;html=1;" parent="1" vertex="1">
          <mxGeometry x="40" y="390" width="120" height="60" as="geometry" />
        </mxCell>
        <mxCell id="hR_grr5WYZVCEhmhDHav-7" value="" style="endArrow=none;html=1;" parent="1" source="hR_grr5WYZVCEhmhDHav-1" target="hR_grr5WYZVCEhmhDHav-13" edge="1">
          <mxGeometry width="50" height="50" relative="1" as="geometry">
            <mxPoint x="170" y="90" as="sourcePoint" />
            <mxPoint x="450" y="270" as="targetPoint" />
          </mxGeometry>
        </mxCell>
        <mxCell id="hR_grr5WYZVCEhmhDHav-8" value="" style="endArrow=none;html=1;exitX=0.847;exitY=-0.03;exitDx=0;exitDy=0;exitPerimeter=0;" parent="1" source="hR_grr5WYZVCEhmhDHav-1" target="hR_grr5WYZVCEhmhDHav-14" edge="1">
          <mxGeometry width="50" height="50" relative="1" as="geometry">
            <mxPoint x="190" y="150" as="sourcePoint" />
            <mxPoint x="210" y="130" as="targetPoint" />
          </mxGeometry>
        </mxCell>
        <mxCell id="hR_grr5WYZVCEhmhDHav-9" value="" style="endArrow=none;html=1;exitX=0;exitY=0;exitDx=0;exitDy=0;" parent="1" source="hR_grr5WYZVCEhmhDHav-1" target="hR_grr5WYZVCEhmhDHav-11" edge="1">
          <mxGeometry width="50" height="50" relative="1" as="geometry">
            <mxPoint x="100" y="190" as="sourcePoint" />
            <mxPoint x="68.97366596101028" y="127.94733192202057" as="targetPoint" />
          </mxGeometry>
        </mxCell>
        <mxCell id="hR_grr5WYZVCEhmhDHav-11" value="&lt;u&gt;REST_ID&lt;/u&gt;" style="ellipse;whiteSpace=wrap;html=1;" parent="1" vertex="1">
          <mxGeometry x="-140" y="50" width="120" height="60" as="geometry" />
        </mxCell>
        <mxCell id="hR_grr5WYZVCEhmhDHav-12" value="REST_NAME" style="ellipse;whiteSpace=wrap;html=1;" parent="1" vertex="1">
          <mxGeometry x="-100" y="-25" width="120" height="50" as="geometry" />
        </mxCell>
        <mxCell id="hR_grr5WYZVCEhmhDHav-13" value="REST_ADDRESS" style="ellipse;whiteSpace=wrap;html=1;" parent="1" vertex="1">
          <mxGeometry x="-10" y="-80" width="120" height="60" as="geometry" />
        </mxCell>
        <mxCell id="hR_grr5WYZVCEhmhDHav-14" value="REST_CONTACT" style="ellipse;whiteSpace=wrap;html=1;" parent="1" vertex="1">
          <mxGeometry x="180" y="20" width="120" height="60" as="geometry" />
        </mxCell>
        <mxCell id="hR_grr5WYZVCEhmhDHav-16" value="" style="endArrow=none;html=1;exitX=0.25;exitY=0;exitDx=0;exitDy=0;" parent="1" source="hR_grr5WYZVCEhmhDHav-1" target="hR_grr5WYZVCEhmhDHav-12" edge="1">
          <mxGeometry width="50" height="50" relative="1" as="geometry">
            <mxPoint x="400" y="310" as="sourcePoint" />
            <mxPoint x="450" y="260" as="targetPoint" />
            <Array as="points" />
          </mxGeometry>
        </mxCell>
        <mxCell id="hR_grr5WYZVCEhmhDHav-22" value="REVIEW_MSSG" style="ellipse;whiteSpace=wrap;html=1;" parent="1" vertex="1">
          <mxGeometry x="30" y="540" width="120" height="40" as="geometry" />
        </mxCell>
        <mxCell id="hR_grr5WYZVCEhmhDHav-23" value="&lt;u&gt;REVIEW_ID&lt;/u&gt;" style="ellipse;whiteSpace=wrap;html=1;" parent="1" vertex="1">
          <mxGeometry x="-70" y="500" width="120" height="40" as="geometry" />
        </mxCell>
        <mxCell id="hR_grr5WYZVCEhmhDHav-31" value="TRANSACTION_MODE" style="ellipse;whiteSpace=wrap;html=1;" parent="1" vertex="1">
          <mxGeometry x="400" y="870" width="140" height="40" as="geometry" />
        </mxCell>
        <mxCell id="hR_grr5WYZVCEhmhDHav-35" value="" style="endArrow=none;html=1;entryX=0.673;entryY=0.015;entryDx=0;entryDy=0;entryPerimeter=0;" parent="1" target="hR_grr5WYZVCEhmhDHav-23" edge="1">
          <mxGeometry width="50" height="50" relative="1" as="geometry">
            <mxPoint x="86" y="451" as="sourcePoint" />
            <mxPoint x="450" y="290" as="targetPoint" />
          </mxGeometry>
        </mxCell>
        <mxCell id="hR_grr5WYZVCEhmhDHav-36" value="" style="endArrow=none;html=1;exitX=0.42;exitY=0.015;exitDx=0;exitDy=0;exitPerimeter=0;" parent="1" source="hR_grr5WYZVCEhmhDHav-22" target="hR_grr5WYZVCEhmhDHav-5" edge="1">
          <mxGeometry width="50" height="50" relative="1" as="geometry">
            <mxPoint x="190" y="465" as="sourcePoint" />
            <mxPoint x="240" y="415" as="targetPoint" />
          </mxGeometry>
        </mxCell>
        <mxCell id="hR_grr5WYZVCEhmhDHav-54" value="HAS" style="rhombus;whiteSpace=wrap;html=1;" parent="1" vertex="1">
          <mxGeometry x="60" y="260" width="80" height="80" as="geometry" />
        </mxCell>
        <mxCell id="hR_grr5WYZVCEhmhDHav-64" value="" style="endArrow=classic;html=1;exitX=0.5;exitY=0;exitDx=0;exitDy=0;entryX=0.5;entryY=1;entryDx=0;entryDy=0;" parent="1" source="hR_grr5WYZVCEhmhDHav-54" target="hR_grr5WYZVCEhmhDHav-1" edge="1">
          <mxGeometry width="50" height="50" relative="1" as="geometry">
            <mxPoint x="200" y="280" as="sourcePoint" />
            <mxPoint x="250" y="230" as="targetPoint" />
          </mxGeometry>
        </mxCell>
        <mxCell id="hR_grr5WYZVCEhmhDHav-65" value="" style="endArrow=none;html=1;exitX=0.5;exitY=0;exitDx=0;exitDy=0;entryX=0.5;entryY=1;entryDx=0;entryDy=0;" parent="1" source="hR_grr5WYZVCEhmhDHav-5" target="hR_grr5WYZVCEhmhDHav-54" edge="1">
          <mxGeometry width="50" height="50" relative="1" as="geometry">
            <mxPoint x="320" y="300" as="sourcePoint" />
            <mxPoint x="370" y="250" as="targetPoint" />
          </mxGeometry>
        </mxCell>
        <mxCell id="hR_grr5WYZVCEhmhDHav-67" value="ITEMS" style="rounded=0;whiteSpace=wrap;html=1;" parent="1" vertex="1">
          <mxGeometry x="585" y="160" width="120" height="60" as="geometry" />
        </mxCell>
        <mxCell id="hR_grr5WYZVCEhmhDHav-68" value="&amp;nbsp;item_price" style="ellipse;whiteSpace=wrap;html=1;" parent="1" vertex="1">
          <mxGeometry x="600" y="-35" width="140" height="50" as="geometry" />
        </mxCell>
        <mxCell id="hR_grr5WYZVCEhmhDHav-69" value="&lt;u&gt;item_id&lt;/u&gt;" style="ellipse;whiteSpace=wrap;html=1;" parent="1" vertex="1">
          <mxGeometry x="430" y="70" width="120" height="50" as="geometry" />
        </mxCell>
        <mxCell id="hR_grr5WYZVCEhmhDHav-70" value="item_name" style="ellipse;whiteSpace=wrap;html=1;" parent="1" vertex="1">
          <mxGeometry x="495" y="10" width="130" height="50" as="geometry" />
        </mxCell>
        <mxCell id="hR_grr5WYZVCEhmhDHav-72" value="" style="endArrow=none;html=1;exitX=0.583;exitY=0.975;exitDx=0;exitDy=0;exitPerimeter=0;" parent="1" source="hR_grr5WYZVCEhmhDHav-70" target="hR_grr5WYZVCEhmhDHav-67" edge="1">
          <mxGeometry width="50" height="50" relative="1" as="geometry">
            <mxPoint x="820" y="240" as="sourcePoint" />
            <mxPoint x="790" y="370" as="targetPoint" />
          </mxGeometry>
        </mxCell>
        <mxCell id="hR_grr5WYZVCEhmhDHav-73" value="" style="endArrow=none;html=1;exitX=0.5;exitY=1;exitDx=0;exitDy=0;" parent="1" source="hR_grr5WYZVCEhmhDHav-68" target="hR_grr5WYZVCEhmhDHav-67" edge="1">
          <mxGeometry width="50" height="50" relative="1" as="geometry">
            <mxPoint x="570" y="440" as="sourcePoint" />
            <mxPoint x="1030" y="110" as="targetPoint" />
            <Array as="points" />
          </mxGeometry>
        </mxCell>
        <mxCell id="hR_grr5WYZVCEhmhDHav-75" value="item_description" style="ellipse;whiteSpace=wrap;html=1;" parent="1" vertex="1">
          <mxGeometry x="710" y="30" width="130" height="40" as="geometry" />
        </mxCell>
        <mxCell id="hR_grr5WYZVCEhmhDHav-77" value="" style="endArrow=none;html=1;entryX=0.896;entryY=-0.035;entryDx=0;entryDy=0;exitX=0.5;exitY=1;exitDx=0;exitDy=0;entryPerimeter=0;" parent="1" source="hR_grr5WYZVCEhmhDHav-75" target="hR_grr5WYZVCEhmhDHav-67" edge="1">
          <mxGeometry width="50" height="50" relative="1" as="geometry">
            <mxPoint x="790" y="360" as="sourcePoint" />
            <mxPoint x="840" y="310" as="targetPoint" />
          </mxGeometry>
        </mxCell>
        <mxCell id="hR_grr5WYZVCEhmhDHav-85" value="REST_PINCODE" style="ellipse;whiteSpace=wrap;html=1;" parent="1" vertex="1">
          <mxGeometry x="100" y="-35" width="130" height="50" as="geometry" />
        </mxCell>
        <mxCell id="hR_grr5WYZVCEhmhDHav-86" value="" style="endArrow=none;html=1;entryX=0.392;entryY=0.97;entryDx=0;entryDy=0;entryPerimeter=0;exitX=0.625;exitY=0.025;exitDx=0;exitDy=0;exitPerimeter=0;" parent="1" source="hR_grr5WYZVCEhmhDHav-1" target="hR_grr5WYZVCEhmhDHav-85" edge="1">
          <mxGeometry width="50" height="50" relative="1" as="geometry">
            <mxPoint x="310" y="210" as="sourcePoint" />
            <mxPoint x="360" y="160" as="targetPoint" />
          </mxGeometry>
        </mxCell>
        <mxCell id="hR_grr5WYZVCEhmhDHav-89" value="HAS" style="rhombus;whiteSpace=wrap;html=1;" parent="1" vertex="1">
          <mxGeometry x="280" y="150" width="80" height="80" as="geometry" />
        </mxCell>
        <mxCell id="hR_grr5WYZVCEhmhDHav-90" value="" style="endArrow=none;html=1;exitX=1;exitY=0.5;exitDx=0;exitDy=0;entryX=0;entryY=0.5;entryDx=0;entryDy=0;" parent="1" source="hR_grr5WYZVCEhmhDHav-89" target="hR_grr5WYZVCEhmhDHav-67" edge="1">
          <mxGeometry width="50" height="50" relative="1" as="geometry">
            <mxPoint x="460" y="200" as="sourcePoint" />
            <mxPoint x="630" y="365" as="targetPoint" />
            <Array as="points" />
          </mxGeometry>
        </mxCell>
        <mxCell id="hR_grr5WYZVCEhmhDHav-91" value="" style="endArrow=none;html=1;entryX=1;entryY=0.5;entryDx=0;entryDy=0;exitX=0;exitY=0.5;exitDx=0;exitDy=0;" parent="1" source="hR_grr5WYZVCEhmhDHav-89" target="hR_grr5WYZVCEhmhDHav-1" edge="1">
          <mxGeometry width="50" height="50" relative="1" as="geometry">
            <mxPoint x="460" y="200" as="sourcePoint" />
            <mxPoint x="510" y="150" as="targetPoint" />
          </mxGeometry>
        </mxCell>
        <mxCell id="hR_grr5WYZVCEhmhDHav-102" value="RATING" style="ellipse;whiteSpace=wrap;html=1;" parent="1" vertex="1">
          <mxGeometry x="150" y="515" width="110" height="45" as="geometry" />
        </mxCell>
        <mxCell id="hR_grr5WYZVCEhmhDHav-103" value="" style="endArrow=none;html=1;exitX=0.75;exitY=1;exitDx=0;exitDy=0;entryX=0.336;entryY=-0.033;entryDx=0;entryDy=0;entryPerimeter=0;" parent="1" source="hR_grr5WYZVCEhmhDHav-5" target="hR_grr5WYZVCEhmhDHav-102" edge="1">
          <mxGeometry width="50" height="50" relative="1" as="geometry">
            <mxPoint x="460" y="280" as="sourcePoint" />
            <mxPoint x="510" y="230" as="targetPoint" />
          </mxGeometry>
        </mxCell>
        <mxCell id="hR_grr5WYZVCEhmhDHav-113" value="CUSTOMERS" style="rounded=0;whiteSpace=wrap;html=1;" parent="1" vertex="1">
          <mxGeometry x="350" y="470" width="120" height="60" as="geometry" />
        </mxCell>
        <mxCell id="hR_grr5WYZVCEhmhDHav-114" value="&lt;u&gt;CUST_ID&lt;/u&gt;" style="ellipse;whiteSpace=wrap;html=1;" parent="1" vertex="1">
          <mxGeometry x="190" y="590" width="120" height="40" as="geometry" />
        </mxCell>
        <mxCell id="hR_grr5WYZVCEhmhDHav-115" value="CUST_ADDRESS" style="ellipse;whiteSpace=wrap;html=1;" parent="1" vertex="1">
          <mxGeometry x="260" y="650" width="120" height="40" as="geometry" />
        </mxCell>
        <mxCell id="hR_grr5WYZVCEhmhDHav-116" value="CUST_CONTACT" style="ellipse;whiteSpace=wrap;html=1;" parent="1" vertex="1">
          <mxGeometry x="330" y="700" width="120" height="40" as="geometry" />
        </mxCell>
        <mxCell id="hR_grr5WYZVCEhmhDHav-117" value="CUST_NAME" style="ellipse;whiteSpace=wrap;html=1;" parent="1" vertex="1">
          <mxGeometry x="400" y="640" width="120" height="40" as="geometry" />
        </mxCell>
        <mxCell id="hR_grr5WYZVCEhmhDHav-118" value="" style="endArrow=none;html=1;exitX=0.076;exitY=1.049;exitDx=0;exitDy=0;exitPerimeter=0;" parent="1" source="hR_grr5WYZVCEhmhDHav-113" target="hR_grr5WYZVCEhmhDHav-114" edge="1">
          <mxGeometry width="50" height="50" relative="1" as="geometry">
            <mxPoint x="130" y="870" as="sourcePoint" />
            <mxPoint x="180" y="820" as="targetPoint" />
            <Array as="points" />
          </mxGeometry>
        </mxCell>
        <mxCell id="hR_grr5WYZVCEhmhDHav-119" value="" style="endArrow=none;html=1;" parent="1" source="hR_grr5WYZVCEhmhDHav-113" target="hR_grr5WYZVCEhmhDHav-117" edge="1">
          <mxGeometry width="50" height="50" relative="1" as="geometry">
            <mxPoint x="490" y="510" as="sourcePoint" />
            <mxPoint x="250" y="620" as="targetPoint" />
          </mxGeometry>
        </mxCell>
        <mxCell id="hR_grr5WYZVCEhmhDHav-120" value="" style="endArrow=none;html=1;entryX=0.549;entryY=-0.052;entryDx=0;entryDy=0;entryPerimeter=0;" parent="1" source="hR_grr5WYZVCEhmhDHav-113" target="hR_grr5WYZVCEhmhDHav-115" edge="1">
          <mxGeometry width="50" height="50" relative="1" as="geometry">
            <mxPoint x="439" y="510" as="sourcePoint" />
            <mxPoint x="290" y="620" as="targetPoint" />
          </mxGeometry>
        </mxCell>
        <mxCell id="hR_grr5WYZVCEhmhDHav-121" value="" style="endArrow=none;html=1;exitX=0.451;exitY=1.049;exitDx=0;exitDy=0;exitPerimeter=0;" parent="1" source="hR_grr5WYZVCEhmhDHav-113" target="hR_grr5WYZVCEhmhDHav-116" edge="1">
          <mxGeometry width="50" height="50" relative="1" as="geometry">
            <mxPoint x="210" y="720" as="sourcePoint" />
            <mxPoint x="260" y="670" as="targetPoint" />
          </mxGeometry>
        </mxCell>
        <mxCell id="hR_grr5WYZVCEhmhDHav-122" value="GIVEN BY" style="rhombus;whiteSpace=wrap;html=1;" parent="1" vertex="1">
          <mxGeometry x="240" y="380" width="80" height="80" as="geometry" />
        </mxCell>
        <mxCell id="hR_grr5WYZVCEhmhDHav-124" value="" style="endArrow=classic;html=1;exitX=1;exitY=0.5;exitDx=0;exitDy=0;entryX=0.569;entryY=-0.021;entryDx=0;entryDy=0;entryPerimeter=0;" parent="1" source="hR_grr5WYZVCEhmhDHav-122" target="hR_grr5WYZVCEhmhDHav-113" edge="1">
          <mxGeometry width="50" height="50" relative="1" as="geometry">
            <mxPoint x="350" y="340" as="sourcePoint" />
            <mxPoint x="400" y="290" as="targetPoint" />
            <Array as="points">
              <mxPoint x="418" y="420" />
            </Array>
          </mxGeometry>
        </mxCell>
        <mxCell id="hR_grr5WYZVCEhmhDHav-125" value="" style="endArrow=none;html=1;entryX=0;entryY=0.5;entryDx=0;entryDy=0;" parent="1" source="hR_grr5WYZVCEhmhDHav-5" target="hR_grr5WYZVCEhmhDHav-122" edge="1">
          <mxGeometry width="50" height="50" relative="1" as="geometry">
            <mxPoint x="350" y="510" as="sourcePoint" />
            <mxPoint x="400" y="460" as="targetPoint" />
          </mxGeometry>
        </mxCell>
        <mxCell id="hR_grr5WYZVCEhmhDHav-126" value="SELECT" style="rhombus;whiteSpace=wrap;html=1;" parent="1" vertex="1">
          <mxGeometry x="520" y="310" width="80" height="80" as="geometry" />
        </mxCell>
        <mxCell id="hR_grr5WYZVCEhmhDHav-127" value="" style="endArrow=none;html=1;entryX=0.556;entryY=1.007;entryDx=0;entryDy=0;entryPerimeter=0;exitX=1;exitY=0.5;exitDx=0;exitDy=0;" parent="1" source="hR_grr5WYZVCEhmhDHav-126" target="hR_grr5WYZVCEhmhDHav-67" edge="1">
          <mxGeometry width="50" height="50" relative="1" as="geometry">
            <mxPoint x="430" y="300" as="sourcePoint" />
            <mxPoint x="480" y="250" as="targetPoint" />
            <Array as="points">
              <mxPoint x="647" y="350" />
            </Array>
          </mxGeometry>
        </mxCell>
        <mxCell id="hR_grr5WYZVCEhmhDHav-128" value="" style="endArrow=none;html=1;" parent="1" source="hR_grr5WYZVCEhmhDHav-67" target="hR_grr5WYZVCEhmhDHav-69" edge="1">
          <mxGeometry width="50" height="50" relative="1" as="geometry">
            <mxPoint x="430" y="300" as="sourcePoint" />
            <mxPoint x="480" y="250" as="targetPoint" />
          </mxGeometry>
        </mxCell>
        <mxCell id="hR_grr5WYZVCEhmhDHav-129" value="" style="endArrow=none;html=1;entryX=0;entryY=0.5;entryDx=0;entryDy=0;exitX=0.84;exitY=0.007;exitDx=0;exitDy=0;exitPerimeter=0;" parent="1" source="hR_grr5WYZVCEhmhDHav-113" target="hR_grr5WYZVCEhmhDHav-126" edge="1">
          <mxGeometry width="50" height="50" relative="1" as="geometry">
            <mxPoint x="450" y="460" as="sourcePoint" />
            <mxPoint x="480" y="280" as="targetPoint" />
            <Array as="points">
              <mxPoint x="450" y="350" />
            </Array>
          </mxGeometry>
        </mxCell>
        <mxCell id="hR_grr5WYZVCEhmhDHav-169" value="CART" style="rounded=0;whiteSpace=wrap;html=1;" parent="1" vertex="1">
          <mxGeometry x="780" y="420" width="120" height="60" as="geometry" />
        </mxCell>
        <mxCell id="hR_grr5WYZVCEhmhDHav-170" value="TRANSACTION" style="rounded=0;whiteSpace=wrap;html=1;" parent="1" vertex="1">
          <mxGeometry x="550" y="730" width="120" height="60" as="geometry" />
        </mxCell>
        <mxCell id="hR_grr5WYZVCEhmhDHav-171" value="" style="endArrow=none;html=1;entryX=0.158;entryY=1;entryDx=0;entryDy=0;entryPerimeter=0;exitX=0.565;exitY=-0.01;exitDx=0;exitDy=0;exitPerimeter=0;" parent="1" source="hR_grr5WYZVCEhmhDHav-31" target="hR_grr5WYZVCEhmhDHav-170" edge="1">
          <mxGeometry width="50" height="50" relative="1" as="geometry">
            <mxPoint x="500" y="870" as="sourcePoint" />
            <mxPoint x="720" y="820" as="targetPoint" />
          </mxGeometry>
        </mxCell>
        <mxCell id="hR_grr5WYZVCEhmhDHav-173" value="PRICE_OF_ITEMS" style="ellipse;whiteSpace=wrap;html=1;" parent="1" vertex="1">
          <mxGeometry x="890" y="630" width="120" height="40" as="geometry" />
        </mxCell>
        <mxCell id="hR_grr5WYZVCEhmhDHav-174" value="IS_EMPTY&lt;br&gt;" style="ellipse;whiteSpace=wrap;html=1;" parent="1" vertex="1">
          <mxGeometry x="910" y="500" width="120" height="40" as="geometry" />
        </mxCell>
        <mxCell id="hR_grr5WYZVCEhmhDHav-175" value="&lt;u&gt;TRANSACTION_ID&lt;/u&gt;" style="ellipse;whiteSpace=wrap;html=1;" parent="1" vertex="1">
          <mxGeometry x="480" y="940" width="120" height="40" as="geometry" />
        </mxCell>
        <mxCell id="hR_grr5WYZVCEhmhDHav-176" value="" style="endArrow=none;html=1;exitX=0.4;exitY=-0.025;exitDx=0;exitDy=0;exitPerimeter=0;" parent="1" source="hR_grr5WYZVCEhmhDHav-175" target="hR_grr5WYZVCEhmhDHav-170" edge="1">
          <mxGeometry width="50" height="50" relative="1" as="geometry">
            <mxPoint x="740" y="670" as="sourcePoint" />
            <mxPoint x="790" y="620" as="targetPoint" />
          </mxGeometry>
        </mxCell>
        <mxCell id="hR_grr5WYZVCEhmhDHav-177" value="" style="endArrow=none;html=1;entryX=0.57;entryY=1.007;entryDx=0;entryDy=0;entryPerimeter=0;exitX=0.438;exitY=0.031;exitDx=0;exitDy=0;exitPerimeter=0;" parent="1" source="hR_grr5WYZVCEhmhDHav-173" target="hR_grr5WYZVCEhmhDHav-169" edge="1">
          <mxGeometry width="50" height="50" relative="1" as="geometry">
            <mxPoint x="857" y="557" as="sourcePoint" />
            <mxPoint x="1090" y="122.5" as="targetPoint" />
          </mxGeometry>
        </mxCell>
        <mxCell id="hR_grr5WYZVCEhmhDHav-178" value="" style="endArrow=none;html=1;entryX=0.75;entryY=1;entryDx=0;entryDy=0;" parent="1" source="hR_grr5WYZVCEhmhDHav-174" target="hR_grr5WYZVCEhmhDHav-169" edge="1">
          <mxGeometry width="50" height="50" relative="1" as="geometry">
            <mxPoint x="830" y="202.5" as="sourcePoint" />
            <mxPoint x="880" y="152.5" as="targetPoint" />
          </mxGeometry>
        </mxCell>
        <mxCell id="hR_grr5WYZVCEhmhDHav-180" value="TOTAL_AMOUNT" style="ellipse;whiteSpace=wrap;html=1;" parent="1" vertex="1">
          <mxGeometry x="640" y="910" width="120" height="40" as="geometry" />
        </mxCell>
        <mxCell id="hR_grr5WYZVCEhmhDHav-181" value="" style="endArrow=none;html=1;entryX=0.906;entryY=1.015;entryDx=0;entryDy=0;entryPerimeter=0;" parent="1" source="hR_grr5WYZVCEhmhDHav-180" target="hR_grr5WYZVCEhmhDHav-170" edge="1">
          <mxGeometry width="50" height="50" relative="1" as="geometry">
            <mxPoint x="740" y="670" as="sourcePoint" />
            <mxPoint x="790" y="620" as="targetPoint" />
          </mxGeometry>
        </mxCell>
        <mxCell id="hR_grr5WYZVCEhmhDHav-183" value="makes payment&lt;br&gt;" style="rhombus;whiteSpace=wrap;html=1;" parent="1" vertex="1">
          <mxGeometry x="550" y="560" width="80" height="80" as="geometry" />
        </mxCell>
        <mxCell id="hR_grr5WYZVCEhmhDHav-184" value="TRANSACTION_TIMESTAMP" style="ellipse;whiteSpace=wrap;html=1;" parent="1" vertex="1">
          <mxGeometry x="555" y="980" width="230" height="40" as="geometry" />
        </mxCell>
        <mxCell id="hR_grr5WYZVCEhmhDHav-185" value="" style="endArrow=none;html=1;entryX=0.684;entryY=1.059;entryDx=0;entryDy=0;entryPerimeter=0;exitX=0.321;exitY=-0.033;exitDx=0;exitDy=0;exitPerimeter=0;" parent="1" source="hR_grr5WYZVCEhmhDHav-184" target="hR_grr5WYZVCEhmhDHav-170" edge="1">
          <mxGeometry width="50" height="50" relative="1" as="geometry">
            <mxPoint x="800" y="870" as="sourcePoint" />
            <mxPoint x="850" y="820" as="targetPoint" />
          </mxGeometry>
        </mxCell>
        <mxCell id="hR_grr5WYZVCEhmhDHav-186" value="GOES TO" style="rhombus;whiteSpace=wrap;html=1;" parent="1" vertex="1">
          <mxGeometry x="800" y="280" width="80" height="80" as="geometry" />
        </mxCell>
        <mxCell id="hR_grr5WYZVCEhmhDHav-187" value="" style="endArrow=none;html=1;entryX=0.5;entryY=1;entryDx=0;entryDy=0;" parent="1" source="hR_grr5WYZVCEhmhDHav-169" target="hR_grr5WYZVCEhmhDHav-186" edge="1">
          <mxGeometry width="50" height="50" relative="1" as="geometry">
            <mxPoint x="870" y="422.5" as="sourcePoint" />
            <mxPoint x="920" y="372.5" as="targetPoint" />
          </mxGeometry>
        </mxCell>
        <mxCell id="hR_grr5WYZVCEhmhDHav-188" value="" style="endArrow=none;html=1;exitX=0.5;exitY=0;exitDx=0;exitDy=0;entryX=1;entryY=0.25;entryDx=0;entryDy=0;" parent="1" source="hR_grr5WYZVCEhmhDHav-186" target="hR_grr5WYZVCEhmhDHav-67" edge="1">
          <mxGeometry width="50" height="50" relative="1" as="geometry">
            <mxPoint x="640" y="230" as="sourcePoint" />
            <mxPoint x="690" y="180" as="targetPoint" />
            <Array as="points">
              <mxPoint x="840" y="175" />
            </Array>
          </mxGeometry>
        </mxCell>
        <mxCell id="hR_grr5WYZVCEhmhDHav-189" value="HAS" style="rhombus;whiteSpace=wrap;html=1;" parent="1" vertex="1">
          <mxGeometry x="570" y="410" width="80" height="80" as="geometry" />
        </mxCell>
        <mxCell id="hR_grr5WYZVCEhmhDHav-190" value="" style="endArrow=classic;html=1;exitX=1;exitY=0.5;exitDx=0;exitDy=0;entryX=0;entryY=0.5;entryDx=0;entryDy=0;" parent="1" source="hR_grr5WYZVCEhmhDHav-189" target="hR_grr5WYZVCEhmhDHav-169" edge="1">
          <mxGeometry width="50" height="50" relative="1" as="geometry">
            <mxPoint x="670" y="470" as="sourcePoint" />
            <mxPoint x="780" y="470" as="targetPoint" />
          </mxGeometry>
        </mxCell>
        <mxCell id="hR_grr5WYZVCEhmhDHav-192" value="" style="endArrow=classic;html=1;exitX=0;exitY=0.5;exitDx=0;exitDy=0;entryX=1;entryY=0.5;entryDx=0;entryDy=0;" parent="1" source="hR_grr5WYZVCEhmhDHav-189" target="hR_grr5WYZVCEhmhDHav-113" edge="1">
          <mxGeometry width="50" height="50" relative="1" as="geometry">
            <mxPoint x="470" y="490" as="sourcePoint" />
            <mxPoint x="550" y="500" as="targetPoint" />
            <Array as="points">
              <mxPoint x="500" y="450" />
              <mxPoint x="500" y="500" />
            </Array>
          </mxGeometry>
        </mxCell>
        <mxCell id="hR_grr5WYZVCEhmhDHav-195" value="" style="endArrow=classic;html=1;exitX=0.5;exitY=0;exitDx=0;exitDy=0;entryX=1;entryY=0.75;entryDx=0;entryDy=0;" parent="1" source="hR_grr5WYZVCEhmhDHav-183" target="hR_grr5WYZVCEhmhDHav-113" edge="1">
          <mxGeometry width="50" height="50" relative="1" as="geometry">
            <mxPoint x="390" y="800" as="sourcePoint" />
            <mxPoint x="440" y="750" as="targetPoint" />
            <Array as="points">
              <mxPoint x="590" y="515" />
            </Array>
          </mxGeometry>
        </mxCell>
        <mxCell id="hR_grr5WYZVCEhmhDHav-196" value="" style="endArrow=none;html=1;entryX=0.5;entryY=1;entryDx=0;entryDy=0;" parent="1" source="hR_grr5WYZVCEhmhDHav-170" target="hR_grr5WYZVCEhmhDHav-183" edge="1">
          <mxGeometry width="50" height="50" relative="1" as="geometry">
            <mxPoint x="390" y="800" as="sourcePoint" />
            <mxPoint x="440" y="750" as="targetPoint" />
          </mxGeometry>
        </mxCell>
        <mxCell id="hR_grr5WYZVCEhmhDHav-197" value="QUANTITY" style="ellipse;whiteSpace=wrap;html=1;" parent="1" vertex="1">
          <mxGeometry x="900" y="380" width="120" height="40" as="geometry" />
        </mxCell>
        <mxCell id="hR_grr5WYZVCEhmhDHav-198" value="" style="endArrow=none;html=1;exitX=1;exitY=0.5;exitDx=0;exitDy=0;entryX=0.41;entryY=0.99;entryDx=0;entryDy=0;entryPerimeter=0;" parent="1" source="hR_grr5WYZVCEhmhDHav-169" target="hR_grr5WYZVCEhmhDHav-197" edge="1">
          <mxGeometry width="50" height="50" relative="1" as="geometry">
            <mxPoint x="900" y="470" as="sourcePoint" />
            <mxPoint x="950" y="420" as="targetPoint" />
          </mxGeometry>
        </mxCell>
        <mxCell id="hR_grr5WYZVCEhmhDHav-199" value="CHECKOUT" style="rhombus;whiteSpace=wrap;html=1;" parent="1" vertex="1">
          <mxGeometry x="730" y="590" width="80" height="80" as="geometry" />
        </mxCell>
        <mxCell id="hR_grr5WYZVCEhmhDHav-200" value="" style="endArrow=none;html=1;entryX=0.5;entryY=1;entryDx=0;entryDy=0;exitX=1;exitY=0.5;exitDx=0;exitDy=0;" parent="1" source="hR_grr5WYZVCEhmhDHav-170" target="hR_grr5WYZVCEhmhDHav-199" edge="1">
          <mxGeometry width="50" height="50" relative="1" as="geometry">
            <mxPoint x="710" y="740" as="sourcePoint" />
            <mxPoint x="760" y="690" as="targetPoint" />
            <Array as="points">
              <mxPoint x="770" y="760" />
            </Array>
          </mxGeometry>
        </mxCell>
        <mxCell id="hR_grr5WYZVCEhmhDHav-202" value="" style="endArrow=classic;html=1;entryX=0.444;entryY=1.063;entryDx=0;entryDy=0;entryPerimeter=0;exitX=0.5;exitY=0;exitDx=0;exitDy=0;" parent="1" source="hR_grr5WYZVCEhmhDHav-199" target="hR_grr5WYZVCEhmhDHav-169" edge="1">
          <mxGeometry width="50" height="50" relative="1" as="geometry">
            <mxPoint x="770" y="560" as="sourcePoint" />
            <mxPoint x="820" y="510" as="targetPoint" />
            <Array as="points">
              <mxPoint x="770" y="540" />
              <mxPoint x="833" y="540" />
            </Array>
          </mxGeometry>
        </mxCell>
      </root>
    </mxGraphModel>
  </diagram>
</mxfile>
